<?xml version="1.0" encoding="UTF-8" standalone="no"?>
<!-- Created with Inkscape (http://www.inkscape.org/) -->

<svg
   xmlns:dc="http://purl.org/dc/elements/1.1/"
   xmlns:cc="http://creativecommons.org/ns#"
   xmlns:rdf="http://www.w3.org/1999/02/22-rdf-syntax-ns#"
   xmlns:svg="http://www.w3.org/2000/svg"
   xmlns="http://www.w3.org/2000/svg"
   xmlns:sodipodi="http://sodipodi.sourceforge.net/DTD/sodipodi-0.dtd"
   xmlns:inkscape="http://www.inkscape.org/namespaces/inkscape"
   width="210mm"
   height="297mm"
   viewBox="0 0 210 297"
   version="1.1"
   id="svg8"
   inkscape:version="0.92.2 5c3e80d, 2017-08-06"
   sodipodi:docname="dataporn_logo.svg">
  <defs
     id="defs2" />
  <sodipodi:namedview
     id="base"
     pagecolor="#ffffff"
     bordercolor="#666666"
     borderopacity="1.0"
     inkscape:pageopacity="0.0"
     inkscape:pageshadow="2"
     inkscape:zoom="1.2263772"
     inkscape:cx="52.605973"
     inkscape:cy="102.3287"
     inkscape:document-units="mm"
     inkscape:current-layer="layer1"
     showgrid="false"
     inkscape:window-width="1920"
     inkscape:window-height="1118"
     inkscape:window-x="0"
     inkscape:window-y="1"
     inkscape:window-maximized="1" />
  <metadata
     id="metadata5">
    <rdf:RDF>
      <cc:Work
         rdf:about="">
        <dc:format>image/svg+xml</dc:format>
        <dc:type
           rdf:resource="http://purl.org/dc/dcmitype/StillImage" />
        <dc:title />
      </cc:Work>
    </rdf:RDF>
  </metadata>
  <g
     inkscape:label="Livello 1"
     inkscape:groupmode="layer"
     id="layer1">
    <rect
       style="opacity:1;fill:#000000;fill-opacity:1;stroke:none;stroke-width:0.49424165;stroke-linecap:round;stroke-linejoin:round;stroke-miterlimit:4;stroke-dasharray:none;stroke-opacity:1"
       id="rect916"
       width="165.09999"
       height="42.686108"
       x="-134.74831"
       y="206.65858"
       inkscape:export-filename="/Users/lucacorsato/Documents/osd/website/dataporn/assets/img/dataporn_logo.png"
       inkscape:export-xdpi="300"
       inkscape:export-ydpi="300" />
    <g
       id="g947"
       inkscape:export-filename="/Users/lucacorsato/Documents/osd/website/dataporn/assets/img/dataporn_logo.png"
       inkscape:export-xdpi="300"
       inkscape:export-ydpi="300">
      <path
         d="m -126.55781,220.72239 v 14.52659 h 2.05974 q 3.52247,0 5.37326,-1.86565 1.86571,-1.86566 1.86571,-5.42156 0,-3.53996 -1.85078,-5.38967 -1.85079,-1.84971 -5.38819,-1.84971 z m -5.74641,-4.64022 h 6.05984 q 5.07475,0 7.55241,0.78134 2.4926,0.7654 4.26875,2.61511 1.56721,1.61052 2.32841,3.71537 0.76122,2.10484 0.76122,4.76778 0,2.69484 -0.76122,4.81562 -0.7612,2.10485 -2.32841,3.71537 -1.79108,1.8497 -4.29859,2.63105 -2.50753,0.7654 -7.52257,0.7654 h -6.05984 z"
         style="font-style:normal;font-variant:normal;font-weight:bold;font-stretch:normal;font-size:medium;line-height:125%;font-family:sans-serif;-inkscape-font-specification:'sans-serif Bold';letter-spacing:-3.00623798px;word-spacing:0px;fill:#fae0df;fill-opacity:1;stroke:none;stroke-width:2.63292766px;stroke-linecap:butt;stroke-linejoin:miter;stroke-opacity:1"
         id="path918"
         inkscape:connector-curvature="0" />
      <path
         d="m -96.316306,235.55195 h -8.985274 l -1.41795,4.33726 h -5.77625 l 8.25392,-23.80704 h 6.8509 l 8.253921,23.80704 h -5.776251 z m -7.552414,-4.41697 h 6.10462 l -3.04484,-9.47179 z"
         style="font-style:normal;font-variant:normal;font-weight:bold;font-stretch:normal;font-size:medium;line-height:125%;font-family:sans-serif;-inkscape-font-specification:'sans-serif Bold';letter-spacing:-3.00623798px;word-spacing:0px;fill:#fae0df;fill-opacity:1;stroke:none;stroke-width:2.63292766px;stroke-linecap:butt;stroke-linejoin:miter;stroke-opacity:1"
         id="path920"
         inkscape:connector-curvature="0" />
      <path
         d="m -94.150057,216.08217 h 20.53778 v 4.64022 h -7.388227 v 19.16682 h -5.7464 v -19.16682 h -7.403153 z"
         style="font-style:normal;font-variant:normal;font-weight:bold;font-stretch:normal;font-size:medium;line-height:125%;font-family:sans-serif;-inkscape-font-specification:'sans-serif Bold';letter-spacing:-3.00623798px;word-spacing:0px;fill:#fae0df;fill-opacity:1;stroke:none;stroke-width:2.63292766px;stroke-linecap:butt;stroke-linejoin:miter;stroke-opacity:1"
         id="path922"
         inkscape:connector-curvature="0" />
      <path
         d="m -62.430899,235.55195 h -8.985279 l -1.417942,4.33726 h -5.77625 l 8.253918,-23.80704 h 6.850902 l 8.253918,23.80704 h -5.77625 z m -7.55241,-4.41697 h 6.104616 l -3.044846,-9.47179 z"
         style="font-style:normal;font-variant:normal;font-weight:bold;font-stretch:normal;font-size:medium;line-height:125%;font-family:sans-serif;-inkscape-font-specification:'sans-serif Bold';letter-spacing:-3.00623798px;word-spacing:0px;fill:#fae0df;fill-opacity:1;stroke:none;stroke-width:2.63292766px;stroke-linecap:butt;stroke-linejoin:miter;stroke-opacity:1"
         id="path924"
         inkscape:connector-curvature="0" />
    </g>
    <g
       id="g953"
       inkscape:export-filename="/Users/lucacorsato/Documents/osd/website/dataporn/assets/img/dataporn_logo.png"
       inkscape:export-xdpi="300"
       inkscape:export-ydpi="300">
      <path
         d="m -55.21976,216.08217 h 9.53753 q 4.253828,0 6.522536,2.02511 2.283635,2.00917 2.283635,5.74049 0,3.74724 -2.283635,5.77236 -2.268708,2.00916 -6.522536,2.00916 h -3.79113 v 8.25992 h -5.7464 z m 5.7464,4.44888 v 6.64937 h 3.179176 q 1.671679,0 2.582148,-0.86106 0.910468,-0.87702 0.910468,-2.47159 0,-1.59459 -0.910468,-2.45566 -0.910469,-0.86106 -2.582148,-0.86106 z"
         style="font-style:normal;font-variant:normal;font-weight:bold;font-stretch:normal;font-size:medium;line-height:125%;font-family:sans-serif;-inkscape-font-specification:'sans-serif Bold';letter-spacing:-3.00623798px;word-spacing:0px;fill:#fae0df;fill-opacity:1;stroke:none;stroke-width:2.63292766px;stroke-linecap:butt;stroke-linejoin:miter;stroke-opacity:1"
         id="path926"
         inkscape:connector-curvature="0" />
      <path
         d="m -25.560354,220.10051 q -2.626925,0 -4.074719,2.07295 -1.447794,2.07295 -1.447794,5.83614 0,3.74726 1.447794,5.82021 1.447794,2.07295 4.074719,2.07295 2.641851,0 4.089645,-2.07295 1.447794,-2.07295 1.447794,-5.82021 0,-3.76319 -1.447794,-5.83614 -1.447794,-2.07295 -4.089645,-2.07295 z m 0,-4.44887 q 5.373257,0 8.418101,3.28482 3.044846,3.28483 3.044846,9.07314 0,5.77238 -3.044846,9.05721 -3.044844,3.28482 -8.418101,3.28482 -5.35833,0 -8.418102,-3.28482 -3.044844,-3.28483 -3.044844,-9.05721 0,-5.78831 3.044844,-9.07314 3.059772,-3.28482 8.418102,-3.28482 z"
         style="font-style:normal;font-variant:normal;font-weight:bold;font-stretch:normal;font-size:medium;line-height:125%;font-family:sans-serif;-inkscape-font-specification:'sans-serif Bold';letter-spacing:-3.00623798px;word-spacing:0px;fill:#fae0df;fill-opacity:1;stroke:none;stroke-width:2.63292766px;stroke-linecap:butt;stroke-linejoin:miter;stroke-opacity:1"
         id="path928"
         inkscape:connector-curvature="0" />
      <path
         d="m -4.5130786,226.63828 q 1.8060111,0 2.5821481,-0.71756 0.7910628,-0.71756 0.7910628,-2.35999 0,-1.62646 -0.7910628,-2.32807 -0.776137,-0.70161 -2.5821481,-0.70161 h -2.4179653 v 6.10723 z m -2.4179653,4.24157 v 9.00936 h -5.7463991 v -23.80704 h 8.7763186 q 4.40308496,0 6.4479075,1.57864 2.0597482,1.57862 2.0597482,4.99102 0,2.35997 -1.0746512,3.87482 -1.0597256,1.51485 -3.20902809,2.23241 1.17913129,0.28702 2.10452529,1.30756 0.94032,1.00458 1.8955655,3.06158 l 3.1194738,6.76101 H 1.3228747 l -2.7164795,-5.91588 q -0.8209142,-1.78593 -1.6716798,-2.43971 -0.8358398,-0.65377 -2.2388567,-0.65377 z"
         style="font-style:normal;font-variant:normal;font-weight:bold;font-stretch:normal;font-size:medium;line-height:125%;font-family:sans-serif;-inkscape-font-specification:'sans-serif Bold';letter-spacing:-3.00623798px;word-spacing:0px;fill:#fae0df;fill-opacity:1;stroke:none;stroke-width:2.63292766px;stroke-linecap:butt;stroke-linejoin:miter;stroke-opacity:1"
         id="path930"
         inkscape:connector-curvature="0" />
      <path
         d="m 7.9369908,216.08217 h 6.4180562 l 8.104662,16.32847 v -16.32847 h 5.447884 v 23.80704 h -6.418056 l -8.104662,-16.32848 v 16.32848 H 7.9369908 Z"
         style="font-style:normal;font-variant:normal;font-weight:bold;font-stretch:normal;font-size:medium;line-height:125%;font-family:sans-serif;-inkscape-font-specification:'sans-serif Bold';letter-spacing:-3.00623798px;word-spacing:0px;fill:#fae0df;fill-opacity:1;stroke:none;stroke-width:2.63292766px;stroke-linecap:butt;stroke-linejoin:miter;stroke-opacity:1"
         id="path932"
         inkscape:connector-curvature="0" />
    </g>
    <rect
       y="169.09885"
       x="56.127659"
       height="86"
       width="86"
       id="rect955"
       style="opacity:1;fill:#000000;fill-opacity:1;stroke:none;stroke-width:0.50631523;stroke-linecap:round;stroke-linejoin:round;stroke-miterlimit:4;stroke-dasharray:none;stroke-opacity:1"
       inkscape:export-filename="/Users/lucacorsato/Documents/osd/website/dataporn/assets/img/dataporn_icon.png"
       inkscape:export-xdpi="300"
       inkscape:export-ydpi="300" />
    <g
       id="g987"
       transform="translate(-0.10616792,44.979189)"
       inkscape:export-filename="/Users/lucacorsato/Documents/osd/website/dataporn/assets/img/dataporn_icon.png"
       inkscape:export-xdpi="300"
       inkscape:export-ydpi="300">
      <g
         transform="matrix(1.0788392,0,0,1,200.40513,-55.538259)"
         id="g965">
        <path
           d="m -126.55781,220.72239 v 14.52659 h 2.05974 q 3.52247,0 5.37326,-1.86565 1.86571,-1.86566 1.86571,-5.42156 0,-3.53996 -1.85078,-5.38967 -1.85079,-1.84971 -5.38819,-1.84971 z m -5.74641,-4.64022 h 6.05984 q 5.07475,0 7.55241,0.78134 2.4926,0.7654 4.26875,2.61511 1.56721,1.61052 2.32841,3.71537 0.76122,2.10484 0.76122,4.76778 0,2.69484 -0.76122,4.81562 -0.7612,2.10485 -2.32841,3.71537 -1.79108,1.8497 -4.29859,2.63105 -2.50753,0.7654 -7.52257,0.7654 h -6.05984 z"
           style="font-style:normal;font-variant:normal;font-weight:bold;font-stretch:normal;font-size:medium;line-height:125%;font-family:sans-serif;-inkscape-font-specification:'sans-serif Bold';letter-spacing:-3.00623798px;word-spacing:0px;fill:#fae0df;fill-opacity:1;stroke:none;stroke-width:2.63292766px;stroke-linecap:butt;stroke-linejoin:miter;stroke-opacity:1"
           id="path957"
           inkscape:connector-curvature="0" />
        <path
           d="m -96.316306,235.55195 h -8.985274 l -1.41795,4.33726 h -5.77625 l 8.25392,-23.80704 h 6.8509 l 8.253921,23.80704 h -5.776251 z m -7.552414,-4.41697 h 6.10462 l -3.04484,-9.47179 z"
           style="font-style:normal;font-variant:normal;font-weight:bold;font-stretch:normal;font-size:medium;line-height:125%;font-family:sans-serif;-inkscape-font-specification:'sans-serif Bold';letter-spacing:-3.00623798px;word-spacing:0px;fill:#fae0df;fill-opacity:1;stroke:none;stroke-width:2.63292766px;stroke-linecap:butt;stroke-linejoin:miter;stroke-opacity:1"
           id="path959"
           inkscape:connector-curvature="0" />
        <path
           d="m -94.150057,216.08217 h 20.53778 v 4.64022 h -7.388227 v 19.16682 h -5.7464 v -19.16682 h -7.403153 z"
           style="font-style:normal;font-variant:normal;font-weight:bold;font-stretch:normal;font-size:medium;line-height:125%;font-family:sans-serif;-inkscape-font-specification:'sans-serif Bold';letter-spacing:-3.00623798px;word-spacing:0px;fill:#fae0df;fill-opacity:1;stroke:none;stroke-width:2.63292766px;stroke-linecap:butt;stroke-linejoin:miter;stroke-opacity:1"
           id="path961"
           inkscape:connector-curvature="0" />
        <path
           d="m -62.430899,235.55195 h -8.985279 l -1.417942,4.33726 h -5.77625 l 8.253918,-23.80704 h 6.850902 l 8.253918,23.80704 h -5.77625 z m -7.55241,-4.41697 h 6.104616 l -3.044846,-9.47179 z"
           style="font-style:normal;font-variant:normal;font-weight:bold;font-stretch:normal;font-size:medium;line-height:125%;font-family:sans-serif;-inkscape-font-specification:'sans-serif Bold';letter-spacing:-3.00623798px;word-spacing:0px;fill:#fae0df;fill-opacity:1;stroke:none;stroke-width:2.63292766px;stroke-linecap:butt;stroke-linejoin:miter;stroke-opacity:1"
           id="path963"
           inkscape:connector-curvature="0" />
      </g>
      <g
         transform="translate(112.88991,-31.731219)"
         id="g975">
        <path
           d="m -55.21976,216.08217 h 9.53753 q 4.253828,0 6.522536,2.02511 2.283635,2.00917 2.283635,5.74049 0,3.74724 -2.283635,5.77236 -2.268708,2.00916 -6.522536,2.00916 h -3.79113 v 8.25992 h -5.7464 z m 5.7464,4.44888 v 6.64937 h 3.179176 q 1.671679,0 2.582148,-0.86106 0.910468,-0.87702 0.910468,-2.47159 0,-1.59459 -0.910468,-2.45566 -0.910469,-0.86106 -2.582148,-0.86106 z"
           style="font-style:normal;font-variant:normal;font-weight:bold;font-stretch:normal;font-size:medium;line-height:125%;font-family:sans-serif;-inkscape-font-specification:'sans-serif Bold';letter-spacing:-3.00623798px;word-spacing:0px;fill:#fae0df;fill-opacity:1;stroke:none;stroke-width:2.63292766px;stroke-linecap:butt;stroke-linejoin:miter;stroke-opacity:1"
           id="path967"
           inkscape:connector-curvature="0" />
        <path
           d="m -25.560354,220.10051 q -2.626925,0 -4.074719,2.07295 -1.447794,2.07295 -1.447794,5.83614 0,3.74726 1.447794,5.82021 1.447794,2.07295 4.074719,2.07295 2.641851,0 4.089645,-2.07295 1.447794,-2.07295 1.447794,-5.82021 0,-3.76319 -1.447794,-5.83614 -1.447794,-2.07295 -4.089645,-2.07295 z m 0,-4.44887 q 5.373257,0 8.418101,3.28482 3.044846,3.28483 3.044846,9.07314 0,5.77238 -3.044846,9.05721 -3.044844,3.28482 -8.418101,3.28482 -5.35833,0 -8.418102,-3.28482 -3.044844,-3.28483 -3.044844,-9.05721 0,-5.78831 3.044844,-9.07314 3.059772,-3.28482 8.418102,-3.28482 z"
           style="font-style:normal;font-variant:normal;font-weight:bold;font-stretch:normal;font-size:medium;line-height:125%;font-family:sans-serif;-inkscape-font-specification:'sans-serif Bold';letter-spacing:-3.00623798px;word-spacing:0px;fill:#fae0df;fill-opacity:1;stroke:none;stroke-width:2.63292766px;stroke-linecap:butt;stroke-linejoin:miter;stroke-opacity:1"
           id="path969"
           inkscape:connector-curvature="0" />
        <path
           d="m -4.5130786,226.63828 q 1.8060111,0 2.5821481,-0.71756 0.7910628,-0.71756 0.7910628,-2.35999 0,-1.62646 -0.7910628,-2.32807 -0.776137,-0.70161 -2.5821481,-0.70161 h -2.4179653 v 6.10723 z m -2.4179653,4.24157 v 9.00936 h -5.7463991 v -23.80704 h 8.7763186 q 4.40308496,0 6.4479075,1.57864 2.0597482,1.57862 2.0597482,4.99102 0,2.35997 -1.0746512,3.87482 -1.0597256,1.51485 -3.20902809,2.23241 1.17913129,0.28702 2.10452529,1.30756 0.94032,1.00458 1.8955655,3.06158 l 3.1194738,6.76101 H 1.3228747 l -2.7164795,-5.91588 q -0.8209142,-1.78593 -1.6716798,-2.43971 -0.8358398,-0.65377 -2.2388567,-0.65377 z"
           style="font-style:normal;font-variant:normal;font-weight:bold;font-stretch:normal;font-size:medium;line-height:125%;font-family:sans-serif;-inkscape-font-specification:'sans-serif Bold';letter-spacing:-3.00623798px;word-spacing:0px;fill:#fae0df;fill-opacity:1;stroke:none;stroke-width:2.63292766px;stroke-linecap:butt;stroke-linejoin:miter;stroke-opacity:1"
           id="path971"
           inkscape:connector-curvature="0" />
        <path
           d="m 7.9369908,216.08217 h 6.4180562 l 8.104662,16.32847 v -16.32847 h 5.447884 v 23.80704 h -6.418056 l -8.104662,-16.32848 v 16.32848 H 7.9369908 Z"
           style="font-style:normal;font-variant:normal;font-weight:bold;font-stretch:normal;font-size:medium;line-height:125%;font-family:sans-serif;-inkscape-font-specification:'sans-serif Bold';letter-spacing:-3.00623798px;word-spacing:0px;fill:#fae0df;fill-opacity:1;stroke:none;stroke-width:2.63292766px;stroke-linecap:butt;stroke-linejoin:miter;stroke-opacity:1"
           id="path973"
           inkscape:connector-curvature="0" />
      </g>
    </g>
    <rect
       y="283.03192"
       x="-130.00194"
       height="42.686108"
       width="165.09999"
       id="rect989"
       style="opacity:1;fill:#000000;fill-opacity:1;stroke:none;stroke-width:0.49424165;stroke-linecap:round;stroke-linejoin:round;stroke-miterlimit:4;stroke-dasharray:none;stroke-opacity:1" />
    <g
       id="g1025"
       transform="translate(0,-6.879167)">
      <g
         transform="translate(4.7463647,76.373322)"
         id="g999">
        <path
           d="m -126.55781,220.72239 v 14.52659 h 2.05974 q 3.52247,0 5.37326,-1.86565 1.86571,-1.86566 1.86571,-5.42156 0,-3.53996 -1.85078,-5.38967 -1.85079,-1.84971 -5.38819,-1.84971 z m -5.74641,-4.64022 h 6.05984 q 5.07475,0 7.55241,0.78134 2.4926,0.7654 4.26875,2.61511 1.56721,1.61052 2.32841,3.71537 0.76122,2.10484 0.76122,4.76778 0,2.69484 -0.76122,4.81562 -0.7612,2.10485 -2.32841,3.71537 -1.79108,1.8497 -4.29859,2.63105 -2.50753,0.7654 -7.52257,0.7654 h -6.05984 z"
           style="font-style:normal;font-variant:normal;font-weight:bold;font-stretch:normal;font-size:medium;line-height:125%;font-family:sans-serif;-inkscape-font-specification:'sans-serif Bold';letter-spacing:-3.00623798px;word-spacing:0px;fill:#fae0df;fill-opacity:1;stroke:none;stroke-width:2.63292766px;stroke-linecap:butt;stroke-linejoin:miter;stroke-opacity:1"
           id="path991"
           inkscape:connector-curvature="0" />
        <path
           d="m -96.316306,235.55195 h -8.985274 l -1.41795,4.33726 h -5.77625 l 8.25392,-23.80704 h 6.8509 l 8.253921,23.80704 h -5.776251 z m -7.552414,-4.41697 h 6.10462 l -3.04484,-9.47179 z"
           style="font-style:normal;font-variant:normal;font-weight:bold;font-stretch:normal;font-size:medium;line-height:125%;font-family:sans-serif;-inkscape-font-specification:'sans-serif Bold';letter-spacing:-3.00623798px;word-spacing:0px;fill:#fae0df;fill-opacity:1;stroke:none;stroke-width:2.63292766px;stroke-linecap:butt;stroke-linejoin:miter;stroke-opacity:1"
           id="path993"
           inkscape:connector-curvature="0" />
        <path
           d="m -94.150057,216.08217 h 20.53778 v 4.64022 h -7.388227 v 19.16682 h -5.7464 v -19.16682 h -7.403153 z"
           style="font-style:normal;font-variant:normal;font-weight:bold;font-stretch:normal;font-size:medium;line-height:125%;font-family:sans-serif;-inkscape-font-specification:'sans-serif Bold';letter-spacing:-3.00623798px;word-spacing:0px;fill:#fae0df;fill-opacity:1;stroke:none;stroke-width:2.63292766px;stroke-linecap:butt;stroke-linejoin:miter;stroke-opacity:1"
           id="path995"
           inkscape:connector-curvature="0" />
        <path
           d="m -62.430899,235.55195 h -8.985279 l -1.417942,4.33726 h -5.77625 l 8.253918,-23.80704 h 6.850902 l 8.253918,23.80704 h -5.77625 z m -7.55241,-4.41697 h 6.104616 l -3.044846,-9.47179 z"
           style="font-style:normal;font-variant:normal;font-weight:bold;font-stretch:normal;font-size:medium;line-height:125%;font-family:sans-serif;-inkscape-font-specification:'sans-serif Bold';letter-spacing:-3.00623798px;word-spacing:0px;fill:#fae0df;fill-opacity:1;stroke:none;stroke-width:2.63292766px;stroke-linecap:butt;stroke-linejoin:miter;stroke-opacity:1"
           id="path997"
           inkscape:connector-curvature="0" />
      </g>
      <g
         transform="translate(4.7463647,76.373322)"
         id="g1009">
        <path
           d="m -55.21976,216.08217 h 9.53753 q 4.253828,0 6.522536,2.02511 2.283635,2.00917 2.283635,5.74049 0,3.74724 -2.283635,5.77236 -2.268708,2.00916 -6.522536,2.00916 h -3.79113 v 8.25992 h -5.7464 z m 5.7464,4.44888 v 6.64937 h 3.179176 q 1.671679,0 2.582148,-0.86106 0.910468,-0.87702 0.910468,-2.47159 0,-1.59459 -0.910468,-2.45566 -0.910469,-0.86106 -2.582148,-0.86106 z"
           style="font-style:normal;font-variant:normal;font-weight:bold;font-stretch:normal;font-size:medium;line-height:125%;font-family:sans-serif;-inkscape-font-specification:'sans-serif Bold';letter-spacing:-3.00623798px;word-spacing:0px;fill:#fae0df;fill-opacity:1;stroke:none;stroke-width:2.63292766px;stroke-linecap:butt;stroke-linejoin:miter;stroke-opacity:1"
           id="path1001"
           inkscape:connector-curvature="0" />
        <path
           d="m -25.560354,220.10051 q -2.626925,0 -4.074719,2.07295 -1.447794,2.07295 -1.447794,5.83614 0,3.74726 1.447794,5.82021 1.447794,2.07295 4.074719,2.07295 2.641851,0 4.089645,-2.07295 1.447794,-2.07295 1.447794,-5.82021 0,-3.76319 -1.447794,-5.83614 -1.447794,-2.07295 -4.089645,-2.07295 z m 0,-4.44887 q 5.373257,0 8.418101,3.28482 3.044846,3.28483 3.044846,9.07314 0,5.77238 -3.044846,9.05721 -3.044844,3.28482 -8.418101,3.28482 -5.35833,0 -8.418102,-3.28482 -3.044844,-3.28483 -3.044844,-9.05721 0,-5.78831 3.044844,-9.07314 3.059772,-3.28482 8.418102,-3.28482 z"
           style="font-style:normal;font-variant:normal;font-weight:bold;font-stretch:normal;font-size:medium;line-height:125%;font-family:sans-serif;-inkscape-font-specification:'sans-serif Bold';letter-spacing:-3.00623798px;word-spacing:0px;fill:#fae0df;fill-opacity:1;stroke:none;stroke-width:2.63292766px;stroke-linecap:butt;stroke-linejoin:miter;stroke-opacity:1"
           id="path1003"
           inkscape:connector-curvature="0" />
        <path
           d="m -4.5130786,226.63828 q 1.8060111,0 2.5821481,-0.71756 0.7910628,-0.71756 0.7910628,-2.35999 0,-1.62646 -0.7910628,-2.32807 -0.776137,-0.70161 -2.5821481,-0.70161 h -2.4179653 v 6.10723 z m -2.4179653,4.24157 v 9.00936 h -5.7463991 v -23.80704 h 8.7763186 q 4.40308496,0 6.4479075,1.57864 2.0597482,1.57862 2.0597482,4.99102 0,2.35997 -1.0746512,3.87482 -1.0597256,1.51485 -3.20902809,2.23241 1.17913129,0.28702 2.10452529,1.30756 0.94032,1.00458 1.8955655,3.06158 l 3.1194738,6.76101 H 1.3228747 l -2.7164795,-5.91588 q -0.8209142,-1.78593 -1.6716798,-2.43971 -0.8358398,-0.65377 -2.2388567,-0.65377 z"
           style="font-style:normal;font-variant:normal;font-weight:bold;font-stretch:normal;font-size:medium;line-height:125%;font-family:sans-serif;-inkscape-font-specification:'sans-serif Bold';letter-spacing:-3.00623798px;word-spacing:0px;fill:#fae0df;fill-opacity:1;stroke:none;stroke-width:2.63292766px;stroke-linecap:butt;stroke-linejoin:miter;stroke-opacity:1"
           id="path1005"
           inkscape:connector-curvature="0" />
        <path
           d="m 7.9369908,216.08217 h 6.4180562 l 8.104662,16.32847 v -16.32847 h 5.447884 v 23.80704 h -6.418056 l -8.104662,-16.32848 v 16.32848 H 7.9369908 Z"
           style="font-style:normal;font-variant:normal;font-weight:bold;font-stretch:normal;font-size:medium;line-height:125%;font-family:sans-serif;-inkscape-font-specification:'sans-serif Bold';letter-spacing:-3.00623798px;word-spacing:0px;fill:#fae0df;fill-opacity:1;stroke:none;stroke-width:2.63292766px;stroke-linecap:butt;stroke-linejoin:miter;stroke-opacity:1"
           id="path1007"
           inkscape:connector-curvature="0" />
      </g>
    </g>
    <text
       xml:space="preserve"
       style="font-style:italic;font-variant:normal;font-weight:normal;font-stretch:normal;font-size:5.94433546px;line-height:125%;font-family:serif;-inkscape-font-specification:'serif Italic';letter-spacing:0px;word-spacing:0px;fill:#fae0df;fill-opacity:1;stroke:none;stroke-width:0.4953613px;stroke-linecap:butt;stroke-linejoin:miter;stroke-opacity:1"
       x="-128.2081"
       y="322.8364"
       id="text1013"><tspan
         sodipodi:role="line"
         id="tspan1011"
         x="-128.2081"
         y="322.8364"
         style="font-style:italic;font-variant:normal;font-weight:normal;font-stretch:normal;font-family:serif;-inkscape-font-specification:'serif Italic';fill:#fae0df;fill-opacity:1;stroke-width:0.4953613px">when data meets a sapiens the sapiens goes obsolete</tspan></text>
    <rect
       style="opacity:1;fill:#000000;fill-opacity:1;stroke:none;stroke-width:0.50631523;stroke-linecap:round;stroke-linejoin:round;stroke-miterlimit:4;stroke-dasharray:none;stroke-opacity:1"
       id="rect1033"
       width="86"
       height="86"
       x="58.285099"
       y="262.43201"
       inkscape:export-filename="/Users/lucacorsato/Documents/osd/website/dataporn/assets/img/dataporn_icon_payoff.png"
       inkscape:export-xdpi="300"
       inkscape:export-ydpi="300" />
    <g
       transform="translate(2.0512706,138.40902)"
       id="g1055"
       inkscape:export-filename="/Users/lucacorsato/Documents/osd/website/dataporn/assets/img/dataporn_icon_payoff.png"
       inkscape:export-xdpi="300"
       inkscape:export-ydpi="300">
      <g
         id="g1043"
         transform="matrix(1.0788392,0,0,1,200.40513,-55.538259)">
        <path
           inkscape:connector-curvature="0"
           id="path1035"
           style="font-style:normal;font-variant:normal;font-weight:bold;font-stretch:normal;font-size:medium;line-height:125%;font-family:sans-serif;-inkscape-font-specification:'sans-serif Bold';letter-spacing:-3.00623798px;word-spacing:0px;fill:#fae0df;fill-opacity:1;stroke:none;stroke-width:2.63292766px;stroke-linecap:butt;stroke-linejoin:miter;stroke-opacity:1"
           d="m -126.55781,220.72239 v 14.52659 h 2.05974 q 3.52247,0 5.37326,-1.86565 1.86571,-1.86566 1.86571,-5.42156 0,-3.53996 -1.85078,-5.38967 -1.85079,-1.84971 -5.38819,-1.84971 z m -5.74641,-4.64022 h 6.05984 q 5.07475,0 7.55241,0.78134 2.4926,0.7654 4.26875,2.61511 1.56721,1.61052 2.32841,3.71537 0.76122,2.10484 0.76122,4.76778 0,2.69484 -0.76122,4.81562 -0.7612,2.10485 -2.32841,3.71537 -1.79108,1.8497 -4.29859,2.63105 -2.50753,0.7654 -7.52257,0.7654 h -6.05984 z" />
        <path
           inkscape:connector-curvature="0"
           id="path1037"
           style="font-style:normal;font-variant:normal;font-weight:bold;font-stretch:normal;font-size:medium;line-height:125%;font-family:sans-serif;-inkscape-font-specification:'sans-serif Bold';letter-spacing:-3.00623798px;word-spacing:0px;fill:#fae0df;fill-opacity:1;stroke:none;stroke-width:2.63292766px;stroke-linecap:butt;stroke-linejoin:miter;stroke-opacity:1"
           d="m -96.316306,235.55195 h -8.985274 l -1.41795,4.33726 h -5.77625 l 8.25392,-23.80704 h 6.8509 l 8.253921,23.80704 h -5.776251 z m -7.552414,-4.41697 h 6.10462 l -3.04484,-9.47179 z" />
        <path
           inkscape:connector-curvature="0"
           id="path1039"
           style="font-style:normal;font-variant:normal;font-weight:bold;font-stretch:normal;font-size:medium;line-height:125%;font-family:sans-serif;-inkscape-font-specification:'sans-serif Bold';letter-spacing:-3.00623798px;word-spacing:0px;fill:#fae0df;fill-opacity:1;stroke:none;stroke-width:2.63292766px;stroke-linecap:butt;stroke-linejoin:miter;stroke-opacity:1"
           d="m -94.150057,216.08217 h 20.53778 v 4.64022 h -7.388227 v 19.16682 h -5.7464 v -19.16682 h -7.403153 z" />
        <path
           inkscape:connector-curvature="0"
           id="path1041"
           style="font-style:normal;font-variant:normal;font-weight:bold;font-stretch:normal;font-size:medium;line-height:125%;font-family:sans-serif;-inkscape-font-specification:'sans-serif Bold';letter-spacing:-3.00623798px;word-spacing:0px;fill:#fae0df;fill-opacity:1;stroke:none;stroke-width:2.63292766px;stroke-linecap:butt;stroke-linejoin:miter;stroke-opacity:1"
           d="m -62.430899,235.55195 h -8.985279 l -1.417942,4.33726 h -5.77625 l 8.253918,-23.80704 h 6.850902 l 8.253918,23.80704 h -5.77625 z m -7.55241,-4.41697 h 6.104616 l -3.044846,-9.47179 z" />
      </g>
      <g
         id="g1053"
         transform="translate(112.88991,-31.731219)">
        <path
           inkscape:connector-curvature="0"
           id="path1045"
           style="font-style:normal;font-variant:normal;font-weight:bold;font-stretch:normal;font-size:medium;line-height:125%;font-family:sans-serif;-inkscape-font-specification:'sans-serif Bold';letter-spacing:-3.00623798px;word-spacing:0px;fill:#fae0df;fill-opacity:1;stroke:none;stroke-width:2.63292766px;stroke-linecap:butt;stroke-linejoin:miter;stroke-opacity:1"
           d="m -55.21976,216.08217 h 9.53753 q 4.253828,0 6.522536,2.02511 2.283635,2.00917 2.283635,5.74049 0,3.74724 -2.283635,5.77236 -2.268708,2.00916 -6.522536,2.00916 h -3.79113 v 8.25992 h -5.7464 z m 5.7464,4.44888 v 6.64937 h 3.179176 q 1.671679,0 2.582148,-0.86106 0.910468,-0.87702 0.910468,-2.47159 0,-1.59459 -0.910468,-2.45566 -0.910469,-0.86106 -2.582148,-0.86106 z" />
        <path
           inkscape:connector-curvature="0"
           id="path1047"
           style="font-style:normal;font-variant:normal;font-weight:bold;font-stretch:normal;font-size:medium;line-height:125%;font-family:sans-serif;-inkscape-font-specification:'sans-serif Bold';letter-spacing:-3.00623798px;word-spacing:0px;fill:#fae0df;fill-opacity:1;stroke:none;stroke-width:2.63292766px;stroke-linecap:butt;stroke-linejoin:miter;stroke-opacity:1"
           d="m -25.560354,220.10051 q -2.626925,0 -4.074719,2.07295 -1.447794,2.07295 -1.447794,5.83614 0,3.74726 1.447794,5.82021 1.447794,2.07295 4.074719,2.07295 2.641851,0 4.089645,-2.07295 1.447794,-2.07295 1.447794,-5.82021 0,-3.76319 -1.447794,-5.83614 -1.447794,-2.07295 -4.089645,-2.07295 z m 0,-4.44887 q 5.373257,0 8.418101,3.28482 3.044846,3.28483 3.044846,9.07314 0,5.77238 -3.044846,9.05721 -3.044844,3.28482 -8.418101,3.28482 -5.35833,0 -8.418102,-3.28482 -3.044844,-3.28483 -3.044844,-9.05721 0,-5.78831 3.044844,-9.07314 3.059772,-3.28482 8.418102,-3.28482 z" />
        <path
           inkscape:connector-curvature="0"
           id="path1049"
           style="font-style:normal;font-variant:normal;font-weight:bold;font-stretch:normal;font-size:medium;line-height:125%;font-family:sans-serif;-inkscape-font-specification:'sans-serif Bold';letter-spacing:-3.00623798px;word-spacing:0px;fill:#fae0df;fill-opacity:1;stroke:none;stroke-width:2.63292766px;stroke-linecap:butt;stroke-linejoin:miter;stroke-opacity:1"
           d="m -4.5130786,226.63828 q 1.8060111,0 2.5821481,-0.71756 0.7910628,-0.71756 0.7910628,-2.35999 0,-1.62646 -0.7910628,-2.32807 -0.776137,-0.70161 -2.5821481,-0.70161 h -2.4179653 v 6.10723 z m -2.4179653,4.24157 v 9.00936 h -5.7463991 v -23.80704 h 8.7763186 q 4.40308496,0 6.4479075,1.57864 2.0597482,1.57862 2.0597482,4.99102 0,2.35997 -1.0746512,3.87482 -1.0597256,1.51485 -3.20902809,2.23241 1.17913129,0.28702 2.10452529,1.30756 0.94032,1.00458 1.8955655,3.06158 l 3.1194738,6.76101 H 1.3228747 l -2.7164795,-5.91588 q -0.8209142,-1.78593 -1.6716798,-2.43971 -0.8358398,-0.65377 -2.2388567,-0.65377 z" />
        <path
           inkscape:connector-curvature="0"
           id="path1051"
           style="font-style:normal;font-variant:normal;font-weight:bold;font-stretch:normal;font-size:medium;line-height:125%;font-family:sans-serif;-inkscape-font-specification:'sans-serif Bold';letter-spacing:-3.00623798px;word-spacing:0px;fill:#fae0df;fill-opacity:1;stroke:none;stroke-width:2.63292766px;stroke-linecap:butt;stroke-linejoin:miter;stroke-opacity:1"
           d="m 7.9369908,216.08217 h 6.4180562 l 8.104662,16.32847 v -16.32847 h 5.447884 v 23.80704 h -6.418056 l -8.104662,-16.32848 v 16.32848 H 7.9369908 Z" />
      </g>
    </g>
    <text
       xml:space="preserve"
       style="font-style:italic;font-variant:normal;font-weight:normal;font-stretch:normal;font-size:6.10412693px;line-height:125%;font-family:serif;-inkscape-font-specification:'serif Italic';letter-spacing:0px;word-spacing:0px;fill:#fae0df;fill-opacity:1;stroke:none;stroke-width:0.50867724px;stroke-linecap:butt;stroke-linejoin:miter;stroke-opacity:1"
       x="59.053783"
       y="268.39688"
       id="text1061"
       inkscape:export-filename="/Users/lucacorsato/Documents/osd/website/dataporn/assets/img/dataporn_icon_payoff.png"
       inkscape:export-xdpi="300"
       inkscape:export-ydpi="300"><tspan
         sodipodi:role="line"
         id="tspan1057"
         x="59.053783"
         y="268.39688"
         style="font-style:italic;font-variant:normal;font-weight:normal;font-stretch:normal;font-family:serif;-inkscape-font-specification:'serif Italic';fill:#fae0df;fill-opacity:1;stroke-width:0.50867724px">when data meets a sapiens</tspan><tspan
         id="tspan1059"
         sodipodi:role="line"
         x="59.053783"
         y="276.02704"
         style="font-style:italic;font-variant:normal;font-weight:normal;font-stretch:normal;font-family:serif;-inkscape-font-specification:'serif Italic';fill:#fae0df;fill-opacity:1;stroke-width:0.50867724px">the sapiens goes obsolete</tspan></text>
  </g>
</svg>
